# xmcd
#
# Track frame offsets:
#	182
#	16642
#	36195
#	55977
#	72465
#	94342
#	110880
#	130542
#	153960
#	168655
#	196287
#	230110
#	254010
#
# Disc length: 3658 seconds
#
# Revision: 0
# Processed by: cddbd v1.5.1PL0 Copyright (c) Steve Scherf et al.
# Submitted via: dBpowerAMP V4.0
#
DISCID=b80e480d
DTITLE=Jimmy Rushing - His Complete Vanguard Recordings - Disc 1
DYEAR=1992
DGENRE=Blues
TTITLE0=Goin' To Chicago
TTITLE1=I Want A Little Girl
TTITLE2=Leave Me
TTITLE3=Sent For You Yesterday
TTITLE4=How Long, How Long Blues
TTITLE5=Boogie Woogie (I May Be Wrong)
TTITLE6=How You Want Your Lovin' Done
TTITLE7=See See Rider
TTITLE8=It's Hard To Laugh A Smile
TTITLE9=Everyday I Have The Blues
TTITLE10=Evenin'
TTITLE11=Good Morning Blues
TTITLE12=Roll 'Em Pete (Instrumental)
EXTD=Jimmy Rushing, his complete vanguard recordings
EXTT0=
EXTT1=
EXTT2=
EXTT3=
EXTT4=
EXTT5=
EXTT6=
EXTT7=
EXTT8=
EXTT9=
EXTT10=
EXTT11=
EXTT12=
PLAYORDER=
